<svg xmlns="http://www.w3.org/2000/svg" version="1.1" xmlns:xlink="http://www.w3.org/1999/xlink" width="1500" height="277" viewBox="0 0 1500 277"><svg xml:space="preserve" width="1500" height="277" data-version="2" data-id="lg_76Hlaj445f7AmdV2Ig" viewBox="0 0 335 277" x="0" y="0"><rect width="100%" height="100%" fill="transparent"></rect><path fill="#1ebbd7" d="M30.26 221.893v-4.24H3.54v56H8.1v-28.56h13.44l1.84-4.4H8.1v-18.8zm4.32 11.68v40.08h4.56v-40.08zm2.32-16.72q-1.04 0-1.88.8-.84.8-.84 1.92 0 1.04.84 1.84t1.88.8q1.12 0 1.92-.8.8-.8.8-1.84 0-1.12-.8-1.92-.8-.8-1.92-.8m35.52 20.64v-3.92H45.38v3.92l21.28.08-22 32.08v4H74.1v-4l-23.84-.08zm34.24 0v-3.92H79.62v3.92l21.28.08-22 32.08v4h29.44v-4l-23.84-.08zm11.84-1.68v-18.16h-4.56v56q-.08 0 .84.08.92.08 2.44.2 1.52.12 3.24.24 1.72.12 3.36.2 1.64.08 2.76.08 3.84.08 7.16-.48 3.32-.56 5.8-2.12t3.84-4.44q1.36-2.88 1.36-7.28v-15.2q0-3.36-1.16-5.68t-3.08-3.72q-1.92-1.4-4.28-2.04-2.36-.64-4.76-.64-2.64 0-4.92.4t-4.24 1.08q-1.96.68-3.8 1.48m0 34.24v-30.24q2.16-.96 4.24-1.68t4.28-1.12q2.2-.4 4.76-.4 1.12 0 2.56.32t2.84 1.2q1.4.88 2.28 2.6.88 1.72.88 4.52v14.32q0 2.88-.6 5t-2.08 3.52q-1.48 1.4-4.08 2-2.6.6-6.6.52-1.92-.08-3.52-.16t-2.68-.2q-1.08-.12-1.68-.16zm56.64-.24v3.84h4.48v-40.08h-4.48v26.24q0 2.16-.8 4-.8 1.84-2.28 3.28-1.48 1.44-3.48 2.24-2 .8-4.4.8-3.04 0-5.2-1t-3.28-3.24q-1.12-2.24-1.12-5.92v-26.4h-4.56v27.52q0 2.72.6 4.88.6 2.16 1.76 3.76 1.16 1.6 2.88 2.64t3.92 1.56q2.2.52 4.84.52 2 0 4.08-.52t3.92-1.56q1.84-1.04 3.12-2.56m37.92-32.32v-3.92h-27.04v3.92l21.28.08-22 32.08v4h29.44v-4l-23.84-.08zm34.24 0v-3.92h-27.04v3.92l21.28.08-22 32.08v4h29.44v-4l-23.84-.08zm48.56-19.84h-18.88v56h4.56v-19.6h14.32q4 0 7-1t4.96-3.16q1.96-2.16 2.96-5.68 1-3.52 1-8.48 0-5.12-1.04-8.6-1.04-3.48-3.08-5.56-2.04-2.08-5-3-2.96-.92-6.8-.92m.4 32h-14.72v-27.76h14.72q2.32 0 4.32.6 2 .6 3.48 2.08t2.32 4.2q.84 2.72.84 6.96 0 4.56-.84 7.36-.84 2.8-2.36 4.2-1.52 1.4-3.48 1.88t-4.28.48m25.52 13.44v-25.28h7.76l1.92-4.16h-9.68v-16h-4.48v45.44q0 4.64 2 7.44 2 2.8 6.4 4.16l1.36-3.44q-1.76-.64-2.92-1.72t-1.76-2.72q-.6-1.64-.6-3.72"></path><path stroke="#1ebbd7" stroke-width="3.24" d="M241.053 94.663c0-37.531-30.424-67.956-67.956-67.956s-67.956 30.425-67.956 67.956c0 23.946 12.297 44.657 31.066 56.953l-14.562 22.005c-2.265 3.56-1.294 8.09 1.942 10.355 1.294.971 2.588 1.295 4.206 1.295 2.59 0 4.854-1.295 6.149-3.236l15.209-22.652c.324-.324.324-.647.324-.971 7.442 2.589 15.209 4.207 23.622 4.207 8.414 0 16.18-1.618 23.623-4.207 0 .324.324.647.324.97l15.209 22.653c1.294 2.265 3.883 3.236 6.148 3.236 1.295 0 2.913-.324 4.207-1.295 3.56-2.265 4.53-7.119 1.942-10.355l-14.562-22.005a67.309 67.309 0 0 0 31.065-56.953m-67.956 52.747c-29.13 0-52.746-23.617-52.746-52.747s23.616-52.747 52.746-52.747 52.747 23.616 52.747 52.747-23.616 52.747-52.747 52.747"></path><path stroke="#1ebbd7" stroke-width="3.24" d="m184.423 66.51-21.357 16.827c-.324.323-.324.647-.647.647-.324.324-.648.647-.971 1.294-.324.324-.324.971-.647 1.295-.324.323-.324.97-.324 1.294v2.589l5.501 33.007c.647 3.56 3.883 6.149 7.443 6.149h1.294a7.443 7.443 0 0 0 6.149-8.738l-4.854-28.476 17.798-14.239c3.236-2.589 3.883-7.443 1.294-10.679-2.912-3.236-7.443-3.56-10.679-.97m-74.751-12.62c11.326-17.475 29.771-29.772 50.158-33.332a7.443 7.443 0 0 0 6.148-8.737 7.443 7.443 0 0 0-8.737-6.148c-24.594 4.53-46.598 19.092-60.19 40.126-2.265 3.56-1.294 8.09 2.266 10.355 1.294.971 2.588 1.295 4.206 1.295 2.266-.324 4.53-1.618 6.149-3.56m140.119-7.443a89.96 89.96 0 0 0-59.866-40.773c-4.207-.647-8.09 1.941-8.738 6.148-.647 4.207 1.942 8.09 6.149 8.737 20.387 3.884 38.832 16.504 49.834 33.978 1.295 2.266 3.883 3.56 6.472 3.56 1.295 0 2.913-.324 3.883-1.294 3.56-2.266 4.53-6.796 2.266-10.356"></path></svg></svg>